solid OpenSCAD_Model
  facet normal -0.8191520442889917 0 -0.5735764363510462
    outer loop
      vertex 50.229344162160125 67.7 11.174940480425576
      vertex 50.229344162160125 69.5 11.174940480425576
      vertex 54.81795565296849 67.7 4.621724126113644
    endloop
  endfacet
  facet normal -0.8191520442889917 0 -0.5735764363510462
    outer loop
      vertex 50.229344162160125 69.5 11.174940480425576
      vertex 54.81795565296849 69.5 4.621724126113644
      vertex 54.81795565296849 67.7 4.621724126113644
    endloop
  endfacet
  facet normal 0 -1 0
    outer loop
      vertex 54.81795565296849 67.7 4.621724126113644
      vertex 57.684987807979965 67.7 6.629241653342305
      vertex 55.046536200765146 67.7 10.397341057071667
    endloop
  endfacet
  facet normal 0 -1 0
    outer loop
      vertex 50.229344162160125 67.7 11.174940480425576
      vertex 54.81795565296849 67.7 4.621724126113644
      vertex 55.046536200765146 67.7 10.397341057071667
    endloop
  endfacet
  facet normal 0 -1 0
    outer loop
      vertex 50.229344162160125 67.7 11.174940480425576
      vertex 55.046536200765146 67.7 10.397341057071667
      vertex 55.66090023398189 67.7 10.827523384334953
    endloop
  endfacet
  facet normal 0 1 0
    outer loop
      vertex 50.229344162160125 69.5 11.174940480425576
      vertex 55.718257877617 69.5 10.745608179906053
      vertex 54.81795565296849 69.5 4.621724126113644
    endloop
  endfacet
  facet normal 0 -1 0
    outer loop
      vertex 50.229344162160125 67.7 11.174940480425576
      vertex 55.66090023398189 67.7 10.827523384334953
      vertex 54.85789322309043 67.7 11.97433624633954
    endloop
  endfacet
  facet normal 0 1 0
    outer loop
      vertex 50.229344162160125 69.5 11.174940480425576
      vertex 54.85789322309043 69.5 11.97433624633954
      vertex 55.718257877617 69.5 10.745608179906053
    endloop
  endfacet
  facet normal 0 1 0
    outer loop
      vertex 54.81795565296849 69.5 4.621724126113644
      vertex 55.718257877617 69.5 10.745608179906053
      vertex 78.16378891520476 69.5 20.968652562118457
    endloop
  endfacet
  facet normal -0.5735764363510462 0 0.8191520442889917
    outer loop
      vertex 50.229344162160125 67.7 11.174940480425576
      vertex 73.57517742439639 69.5 27.521868916430392
      vertex 50.229344162160125 69.5 11.174940480425576
    endloop
  endfacet
  facet normal 0 -1 0
    outer loop
      vertex 50.229344162160125 67.7 11.174940480425576
      vertex 54.85789322309043 67.7 11.97433624633954
      vertex 71.24093410887026 67.7 23.445864973360464
    endloop
  endfacet
  facet normal 0 1 0
    outer loop
      vertex 50.229344162160125 69.5 11.174940480425576
      vertex 73.57517742439639 69.5 27.521868916430392
      vertex 54.85789322309043 69.5 11.97433624633954
    endloop
  endfacet
  facet normal 0 1 0
    outer loop
      vertex 55.718257877617 69.5 10.745608179906053
      vertex 72.10129876339684 69.5 22.217136906926974
      vertex 78.16378891520476 69.5 20.968652562118457
    endloop
  endfacet
  facet normal 0 -1 0
    outer loop
      vertex 50.229344162160125 67.7 11.174940480425576
      vertex 71.24093410887026 67.7 23.445864973360464
      vertex 73.57517742439639 67.7 27.521868916430392
    endloop
  endfacet
  facet normal -0.5735764363510462 0 0.8191520442889917
    outer loop
      vertex 50.229344162160125 67.7 11.174940480425576
      vertex 73.57517742439639 67.7 27.521868916430392
      vertex 73.57517742439639 69.5 27.521868916430392
    endloop
  endfacet
  facet normal 0 1 0
    outer loop
      vertex 54.85789322309043 69.5 11.97433624633954
      vertex 73.57517742439639 69.5 27.521868916430392
      vertex 71.24093410887026 69.5 23.445864973360464
    endloop
  endfacet
  facet normal 0 1 0
    outer loop
      vertex 72.10129876339684 69.5 22.217136906926974
      vertex 71.24093410887026 69.5 23.445864973360464
      vertex 78.16378891520476 69.5 20.968652562118457
    endloop
  endfacet
  facet normal 0 -1 0
    outer loop
      vertex 72.04394111976174 67.7 22.299052111355877
      vertex 73.06788117512298 67.7 23.016022656794675
      vertex 71.24093410887026 67.7 23.445864973360464
    endloop
  endfacet
  facet normal 0 -1 0
    outer loop
      vertex 71.24093410887026 67.7 23.445864973360464
      vertex 73.06788117512298 67.7 23.016022656794675
      vertex 73.57517742439639 67.7 27.521868916430392
    endloop
  endfacet
  facet normal 0 -1 0
    outer loop
      vertex 73.06788117512298 67.7 23.016022656794675
      vertex 75.7063327823378 67.7 19.247923253065316
      vertex 78.16378891520476 67.7 20.968652562118457
    endloop
  endfacet
  facet normal 0 -1 0
    outer loop
      vertex 73.06788117512298 67.7 23.016022656794675
      vertex 78.16378891520476 67.7 20.968652562118457
      vertex 73.57517742439639 67.7 27.521868916430392
    endloop
  endfacet
  facet normal 0.8191520442889915 0 0.5735764363510466
    outer loop
      vertex 73.57517742439639 67.7 27.521868916430392
      vertex 78.16378891520476 67.7 20.968652562118457
      vertex 78.16378891520476 69.5 20.968652562118457
    endloop
  endfacet
  facet normal 0 1 0
    outer loop
      vertex 71.24093410887026 69.5 23.445864973360464
      vertex 73.57517742439639 69.5 27.521868916430392
      vertex 78.16378891520476 69.5 20.968652562118457
    endloop
  endfacet
  facet normal 0.8191520442889915 0 0.5735764363510466
    outer loop
      vertex 73.57517742439639 67.7 27.521868916430392
      vertex 78.16378891520476 69.5 20.968652562118457
      vertex 73.57517742439639 69.5 27.521868916430392
    endloop
  endfacet
  facet normal 0.8191520442889778 0 0.573576436351066
    outer loop
      vertex 55.66090023398189 67.7 10.827523384334953
      vertex 55.718257877617 67.7 10.745608179906053
      vertex 55.718257877617 69.5 10.745608179906053
    endloop
  endfacet
  facet normal 0.8191520442889921 -1.3877787807814498e-15 0.5735764363510457
    outer loop
      vertex 55.66090023398189 67.7 10.827523384334953
      vertex 55.718257877617 69.5 10.745608179906053
      vertex 54.85789322309043 67.7 11.97433624633954
    endloop
  endfacet
  facet normal 0.8191520442889911 0 0.573576436351047
    outer loop
      vertex 55.718257877617 69.5 10.745608179906053
      vertex 54.85789322309043 69.5 11.97433624633954
      vertex 54.85789322309043 67.7 11.97433624633954
    endloop
  endfacet
  facet normal -0.5735764363510459 0 0.8191520442889919
    outer loop
      vertex 55.718257877617 67.7 10.745608179906053
      vertex 72.10129876339684 69.5 22.217136906926974
      vertex 55.718257877617 69.5 10.745608179906053
    endloop
  endfacet
  facet normal 0.5735764363510463 0 -0.8191520442889917
    outer loop
      vertex 54.85789322309043 67.7 11.97433624633954
      vertex 54.85789322309043 69.5 11.97433624633954
      vertex 71.24093410887026 67.7 23.445864973360464
    endloop
  endfacet
  facet normal -0.5735764363510448 -1.5182537088891055e-14 0.8191520442889928
    outer loop
      vertex 55.718257877617 67.7 10.745608179906053
      vertex 58.380502021556225 67.7 12.609731598046949
      vertex 72.10129876339684 69.5 22.217136906926974
    endloop
  endfacet
  facet normal 0.5735764363510463 0 -0.8191520442889917
    outer loop
      vertex 54.85789322309043 69.5 11.97433624633954
      vertex 71.24093410887026 69.5 23.445864973360464
      vertex 71.24093410887026 67.7 23.445864973360464
    endloop
  endfacet
  facet normal -0.5735764363510462 0 0.8191520442889917
    outer loop
      vertex 58.380502021556225 67.7 12.609731598046949
      vertex 72.10129876339684 67.7 22.217136906926974
      vertex 72.10129876339684 69.5 22.217136906926974
    endloop
  endfacet
  facet normal -0.8191520442889874 0 -0.5735764363510525
    outer loop
      vertex 72.04394111976174 67.7 22.299052111355877
      vertex 71.24093410887026 67.7 23.445864973360464
      vertex 71.24093410887026 69.5 23.445864973360464
    endloop
  endfacet
  facet normal -0.8191520442890228 -4.818676322157783e-14 -0.5735764363510016
    outer loop
      vertex 72.04394111976174 67.7 22.299052111355877
      vertex 71.24093410887026 69.5 23.445864973360464
      vertex 72.10129876339684 67.7 22.217136906926974
    endloop
  endfacet
  facet normal -0.8191520442889897 0 -0.573576436351049
    outer loop
      vertex 72.10129876339684 67.7 22.217136906926974
      vertex 71.24093410887026 69.5 23.445864973360464
      vertex 72.10129876339684 69.5 22.217136906926974
    endloop
  endfacet
  facet normal -0.8191520442889928 0 -0.5735764363510448
    outer loop
      vertex 0.19190600982131917 0 19
      vertex -0.03166894485021032 0 19.319298125871605
      vertex -0.03166894485021032 76 19.319298125871605
    endloop
  endfacet
  facet normal -0.5735764363510464 0 0.8191520442889916
    outer loop
      vertex -0.03166894485021032 0 19.319298125871605
      vertex 2.016211165872271 2.5 20.753239216749222
      vertex 2.016211165872271 73.5 20.753239216749222
    endloop
  endfacet
  facet normal 0 -1 0
    outer loop
      vertex 51.007283596211536 0 13.55082141956116
      vertex 15.5 0 4.5
      vertex 55.595895087019905 0 6.997605065249221
    endloop
  endfacet
  facet normal 0 -1 0
    outer loop
      vertex 2.7346597654879905 0 17.26534023451201
      vertex 15.5 0 4.5
      vertex 57.30897415537922 0 59.469648670444826
    endloop
  endfacet
  facet normal 0 -1 0
    outer loop
      vertex 51.007283596211536 0 13.55082141956116
      vertex 57.30897415537922 0 59.469648670444826
      vertex 15.5 0 4.5
    endloop
  endfacet
  facet normal 0 -1 0
    outer loop
      vertex 0.19190600982131917 0 19
      vertex 57.30897415537922 0 59.469648670444826
      vertex -0.03166894485021032 0 19.319298125871605
    endloop
  endfacet
  facet normal -0.5735764363510462 -3.4980565452804937e-16 0.8191520442889918
    outer loop
      vertex -0.03166894485021032 0 19.319298125871605
      vertex 55.26109404465674 2.5 58.035707579567216
      vertex 2.016211165872271 2.5 20.753239216749222
    endloop
  endfacet
  facet normal 0 -1 0
    outer loop
      vertex 2.7346597654879905 0 17.26534023451201
      vertex 57.30897415537922 0 59.469648670444826
      vertex 0.19190600982131917 0 19
    endloop
  endfacet
  facet normal -0.573576436351046 -2.598556290779795e-15 0.8191520442889919
    outer loop
      vertex -0.03166894485021032 0 19.319298125871605
      vertex 57.30897415537922 0 59.469648670444826
      vertex 55.26109404465674 2.5 58.035707579567216
    endloop
  endfacet
  facet normal -0.5735764363510464 0 0.8191520442889916
    outer loop
      vertex -0.03166894485021032 0 19.319298125871605
      vertex 2.016211165872271 73.5 20.753239216749222
      vertex -0.03166894485021032 76 19.319298125871605
    endloop
  endfacet
  facet normal -0.8191520442889928 0 -0.5735764363510448
    outer loop
      vertex 0.19190600982131917 0 19
      vertex -0.03166894485021032 76 19.319298125871605
      vertex 0.19190600982131917 76 19
    endloop
  endfacet
  facet normal 0 1 0
    outer loop
      vertex 6.447425301145444 76 13.249939959902033
      vertex -0.03166894485021032 76 19.319298125871605
      vertex 8.383644137247256 76 11.616355862752744
    endloop
  endfacet
  facet normal 0 1 0
    outer loop
      vertex 6.447425301145444 76 13.249939959902033
      vertex 0.9435055091164861 76 17.926604673213237
      vertex 0.19190600982131917 76 19
    endloop
  endfacet
  facet normal 0 1 0
    outer loop
      vertex 6.447425301145444 76 13.249939959902033
      vertex 0.19190600982131917 76 19
      vertex -0.03166894485021032 76 19.319298125871605
    endloop
  endfacet
  facet normal 0 1 0
    outer loop
      vertex 8.383644137247256 76 11.616355862752744
      vertex 60.25911458333333 76 4.5
      vertex 15.5 76 4.5
    endloop
  endfacet
  facet normal 0 1 0
    outer loop
      vertex 8.383644137247256 76 11.616355862752744
      vertex -0.03166894485021032 76 19.319298125871605
      vertex 60.25911458333333 76 4.5
    endloop
  endfacet
  facet normal -0.573576436351046 4.0602442043434295e-16 0.8191520442889919
    outer loop
      vertex 2.016211165872271 73.5 20.753239216749222
      vertex 57.30897415537922 76 59.469648670444826
      vertex -0.03166894485021032 76 19.319298125871605
    endloop
  endfacet
  facet normal -0.5735764363510462 2.7984452362243946e-15 0.8191520442889917
    outer loop
      vertex 2.016211165872271 73.5 20.753239216749222
      vertex 55.26109404465674 73.5 58.035707579567216
      vertex 57.30897415537922 76 59.469648670444826
    endloop
  endfacet
  facet normal 0 -1 0
    outer loop
      vertex 55.595895087019905 0 6.997605065249221
      vertex 15.5 0 4.5
      vertex 60.259114583333336 0 4.5
    endloop
  endfacet
  facet normal 0 -1 0
    outer loop
      vertex 55.595895087019905 0 6.997605065249221
      vertex 60.259114583333336 0 4.5
      vertex 83.85 0 20.2
    endloop
  endfacet
  facet normal 0 -1 0
    outer loop
      vertex 55.595895087019905 0 6.997605065249221
      vertex 83.85 0 20.2
      vertex 76.0746961942447 0 21.337015974025377
    endloop
  endfacet
  facet normal 0 -1 0
    outer loop
      vertex 76.0746961942447 0 21.337015974025377
      vertex 83.85 0 20.2
      vertex 84.8058781772716 0 20.2
    endloop
  endfacet
  facet normal 0 -1 0
    outer loop
      vertex 51.007283596211536 0 13.55082141956116
      vertex 71.48608470343633 0 27.890232328337305
      vertex 57.30897415537922 0 59.469648670444826
    endloop
  endfacet
  facet normal -0.5735764363510444 0 0.8191520442889929
    outer loop
      vertex 55.26109404465674 2.5 58.035707579567216
      vertex 57.30897415537922 0 59.469648670444826
      vertex 57.30897415537922 76 59.469648670444826
    endloop
  endfacet
  facet normal 0 -1 0
    outer loop
      vertex 71.48608470343633 0 27.890232328337305
      vertex 76.0746961942447 0 21.337015974025377
      vertex 57.30897415537922 0 59.469648670444826
    endloop
  endfacet
  facet normal 0 -1 0
    outer loop
      vertex 76.0746961942447 0 21.337015974025377
      vertex 84.8058781772716 0 20.2
      vertex 57.30897415537922 0 59.469648670444826
    endloop
  endfacet
  facet normal 0.8191520442889918 0 0.5735764363510463
    outer loop
      vertex 84.8058781772716 0 20.2
      vertex 84.8058781772716 76 20.2
      vertex 57.30897415537922 0 59.469648670444826
    endloop
  endfacet
  facet normal 0 1 0
    outer loop
      vertex -0.03166894485021032 76 19.319298125871605
      vertex 78.1388036107336 76 16.39913446537557
      vertex 60.25911458333333 76 4.5
    endloop
  endfacet
  facet normal 0 1 0
    outer loop
      vertex -0.03166894485021032 76 19.319298125871605
      vertex 79.33994892893662 76 17.042182612288382
      vertex 78.1388036107336 76 16.39913446537557
    endloop
  endfacet
  facet normal -0.5735764363510445 0 0.819152044288993
    outer loop
      vertex 55.26109404465674 2.5 58.035707579567216
      vertex 57.30897415537922 76 59.469648670444826
      vertex 55.26109404465674 73.5 58.035707579567216
    endloop
  endfacet
  facet normal 0 1 0
    outer loop
      vertex -0.03166894485021032 76 19.319298125871605
      vertex 57.30897415537922 76 59.469648670444826
      vertex 79.33994892893662 76 17.042182612288382
    endloop
  endfacet
  facet normal 0.8191520442889918 0 0.5735764363510463
    outer loop
      vertex 57.30897415537922 0 59.469648670444826
      vertex 84.8058781772716 76 20.2
      vertex 57.30897415537922 76 59.469648670444826
    endloop
  endfacet
  facet normal 0 1 0
    outer loop
      vertex 79.33994892893662 76 17.042182612288382
      vertex 57.30897415537922 76 59.469648670444826
      vertex 83.85 76 20.2
    endloop
  endfacet
  facet normal 0 1 0
    outer loop
      vertex 83.85 76 20.2
      vertex 57.30897415537922 76 59.469648670444826
      vertex 84.8058781772716 76 20.2
    endloop
  endfacet
  facet normal 0.8191520442889918 0 0.5735764363510462
    outer loop
      vertex 6.803449890017497 4.5 17.403247366304747
      vertex 15.838400963288665 4.5 4.5
      vertex 15.838400963288665 71.5 4.5
    endloop
  endfacet
  facet normal 0 1 0
    outer loop
      vertex 55.595895087019905 4.5 6.997605065249221
      vertex 54.64411558488687 4.5 4.5
      vertex 15.838400963288665 4.5 4.5
    endloop
  endfacet
  facet normal 0 1 0
    outer loop
      vertex 51.007283596211536 4.5 13.55082141956116
      vertex 55.595895087019905 4.5 6.997605065249221
      vertex 15.838400963288665 4.5 4.5
    endloop
  endfacet
  facet normal 0 1 0
    outer loop
      vertex 6.803449890017497 4.5 17.403247366304747
      vertex 56.771724591646 4.5 52.39140998371856
      vertex 15.838400963288665 4.5 4.5
    endloop
  endfacet
  facet normal 0 1 0
    outer loop
      vertex 51.007283596211536 4.5 13.55082141956116
      vertex 15.838400963288665 4.5 4.5
      vertex 56.771724591646 4.5 52.39140998371856
    endloop
  endfacet
  facet normal 0.8191520442889918 0 0.5735764363510462
    outer loop
      vertex 6.803449890017497 4.5 17.403247366304747
      vertex 15.838400963288665 71.5 4.5
      vertex 6.803449890017497 71.5 17.403247366304747
    endloop
  endfacet
  facet normal 0 -1 0
    outer loop
      vertex 6.803449890017497 71.5 17.403247366304747
      vertex 15.838400963288665 71.5 4.5
      vertex 54.64411558488687 71.5 4.5
    endloop
  endfacet
  facet normal 0 1 0
    outer loop
      vertex 55.595895087019905 4.5 6.997605065249221
      vertex 57.684987807979965 4.5 6.629241653342305
      vertex 54.64411558488687 4.5 4.5
    endloop
  endfacet
  facet normal 0 1 0
    outer loop
      vertex 55.595895087019905 4.5 6.997605065249221
      vertex 56.824623153453395 4.5 7.857969719775792
      vertex 57.684987807979965 4.5 6.629241653342305
    endloop
  endfacet
  facet normal -0.5735764363510463 0 0.8191520442889916
    outer loop
      vertex 57.684987807979965 4.5 6.629241653342305
      vertex 57.684987807979965 63.7 6.629241653342305
      vertex 54.64411558488687 4.5 4.5
    endloop
  endfacet
  facet normal 0 1 0
    outer loop
      vertex 75.7063327823378 4.5 19.247923253065316
      vertex 74.84596812781122 4.5 20.476651319498806
      vertex 76.0746961942447 4.5 21.337015974025377
    endloop
  endfacet
  facet normal 0 1 0
    outer loop
      vertex 75.7063327823378 4.5 19.247923253065316
      vertex 76.0746961942447 4.5 21.337015974025377
      vertex 78.57336493734925 4.5 21.25544078029398
    endloop
  endfacet
  facet normal 0 1 0
    outer loop
      vertex 71.48608470343633 4.5 27.890232328337305
      vertex 78.57336493734925 4.5 21.25544078029398
      vertex 76.0746961942447 4.5 21.337015974025377
    endloop
  endfacet
  facet normal -0.5735764363510484 0 0.81915204428899
    outer loop
      vertex 75.7063327823378 4.5 19.247923253065316
      vertex 78.57336493734925 4.5 21.25544078029398
      vertex 75.7063327823378 63.7 19.247923253065316
    endloop
  endfacet
  facet normal 0 1 0
    outer loop
      vertex 51.007283596211536 4.5 13.55082141956116
      vertex 56.771724591646 4.5 52.39140998371856
      vertex 71.48608470343633 4.5 27.890232328337305
    endloop
  endfacet
  facet normal 0 1 0
    outer loop
      vertex 71.48608470343633 4.5 27.890232328337305
      vertex 56.771724591646 4.5 52.39140998371856
      vertex 78.57336493734925 4.5 21.25544078029398
    endloop
  endfacet
  facet normal -0.8191520442889919 0 -0.5735764363510458
    outer loop
      vertex 78.57336493734925 4.5 21.25544078029398
      vertex 56.771724591646 4.5 52.39140998371856
      vertex 56.771724591646 71.5 52.39140998371856
    endloop
  endfacet
  facet normal -0.5735764363510525 0 0.8191520442889875
    outer loop
      vertex 54.81795565296849 67.7 4.621724126113644
      vertex 54.81795565296849 69.5 4.621724126113644
      vertex 54.64411558488687 4.5 4.5
    endloop
  endfacet
  facet normal -0.5735764363510458 -2.399953813137056e-17 0.8191520442889919
    outer loop
      vertex 57.684987807979965 63.7 6.629241653342305
      vertex 54.81795565296849 67.7 4.621724126113644
      vertex 54.64411558488687 4.5 4.5
    endloop
  endfacet
  facet normal -0.5735764363510524 0 0.8191520442889874
    outer loop
      vertex 54.81795565296849 69.5 4.621724126113644
      vertex 54.64411558488687 71.5 4.5
      vertex 54.64411558488687 4.5 4.5
    endloop
  endfacet
  facet normal 0 -1 0
    outer loop
      vertex 6.803449890017497 71.5 17.403247366304747
      vertex 54.64411558488687 71.5 4.5
      vertex 78.57336493734925 71.5 21.25544078029398
    endloop
  endfacet
  facet normal -0.5735764363510458 0 0.8191520442889919
    outer loop
      vertex 57.684987807979965 63.7 6.629241653342305
      vertex 57.684987807979965 67.7 6.629241653342305
      vertex 54.81795565296849 67.7 4.621724126113644
    endloop
  endfacet
  facet normal -0.5735764363510462 8.133162458394944e-16 0.8191520442889917
    outer loop
      vertex 54.81795565296849 69.5 4.621724126113644
      vertex 78.57336493734925 71.5 21.25544078029398
      vertex 54.64411558488687 71.5 4.5
    endloop
  endfacet
  facet normal -0.5735764363510485 0 0.8191520442889901
    outer loop
      vertex 78.57336493734925 4.5 21.25544078029398
      vertex 75.7063327823378 67.7 19.247923253065316
      vertex 75.7063327823378 63.7 19.247923253065316
    endloop
  endfacet
  facet normal -0.5735764363510482 2.1665744678866498e-17 0.8191520442889904
    outer loop
      vertex 78.57336493734925 4.5 21.25544078029398
      vertex 78.16378891520476 67.7 20.968652562118457
      vertex 75.7063327823378 67.7 19.247923253065316
    endloop
  endfacet
  facet normal -0.5735764363510513 0 0.8191520442889881
    outer loop
      vertex 78.57336493734925 4.5 21.25544078029398
      vertex 78.16378891520476 69.5 20.968652562118457
      vertex 78.16378891520476 67.7 20.968652562118457
    endloop
  endfacet
  facet normal -0.5735764363510504 0 0.8191520442889888
    outer loop
      vertex 78.57336493734925 4.5 21.25544078029398
      vertex 78.57336493734925 71.5 21.25544078029398
      vertex 78.16378891520476 69.5 20.968652562118457
    endloop
  endfacet
  facet normal -0.573576436351046 -9.97252962470316e-16 0.8191520442889919
    outer loop
      vertex 54.81795565296849 69.5 4.621724126113644
      vertex 78.16378891520476 69.5 20.968652562118457
      vertex 78.57336493734925 71.5 21.25544078029398
    endloop
  endfacet
  facet normal 0 -1 0
    outer loop
      vertex 6.803449890017497 71.5 17.403247366304747
      vertex 78.57336493734925 71.5 21.25544078029398
      vertex 56.771724591646 71.5 52.39140998371856
    endloop
  endfacet
  facet normal -0.8191520442889919 0 -0.5735764363510458
    outer loop
      vertex 78.57336493734925 4.5 21.25544078029398
      vertex 56.771724591646 71.5 52.39140998371856
      vertex 78.57336493734925 71.5 21.25544078029398
    endloop
  endfacet
  facet normal 0.8191520442889916 0 0.5735764363510465
    outer loop
      vertex 5.165145801439515 2.5 16.25609449360266
      vertex 2.016211165872271 73.5 20.753239216749222
      vertex 2.016211165872271 2.5 20.753239216749222
    endloop
  endfacet
  facet normal -0.5735764363510446 0 0.8191520442889928
    outer loop
      vertex 5.165145801439515 2.5 16.25609449360266
      vertex 6.803449890017497 4.5 17.403247366304747
      vertex 5.165145801439515 73.5 16.25609449360266
    endloop
  endfacet
  facet normal -0.573576436351046 1.7490282726402467e-15 0.8191520442889918
    outer loop
      vertex 5.165145801439515 2.5 16.25609449360266
      vertex 58.41002868022398 2.5 53.538562856420654
      vertex 6.803449890017497 4.5 17.403247366304747
    endloop
  endfacet
  facet normal 0 1 0
    outer loop
      vertex 5.165145801439515 2.5 16.25609449360266
      vertex 2.016211165872271 2.5 20.753239216749222
      vertex 58.41002868022398 2.5 53.538562856420654
    endloop
  endfacet
  facet normal 0 1 0
    outer loop
      vertex 2.016211165872271 2.5 20.753239216749222
      vertex 55.26109404465674 2.5 58.035707579567216
      vertex 58.41002868022398 2.5 53.538562856420654
    endloop
  endfacet
  facet normal -0.573576436351046 0 0.8191520442889917
    outer loop
      vertex 6.803449890017497 4.5 17.403247366304747
      vertex 58.41002868022398 2.5 53.538562856420654
      vertex 56.771724591646 4.5 52.39140998371856
    endloop
  endfacet
  facet normal 0.8191520442889916 0 0.5735764363510465
    outer loop
      vertex 5.165145801439515 2.5 16.25609449360266
      vertex 5.165145801439515 73.5 16.25609449360266
      vertex 2.016211165872271 73.5 20.753239216749222
    endloop
  endfacet
  facet normal -0.5735764363510447 0 0.8191520442889929
    outer loop
      vertex 6.803449890017497 4.5 17.403247366304747
      vertex 6.803449890017497 71.5 17.403247366304747
      vertex 5.165145801439515 73.5 16.25609449360266
    endloop
  endfacet
  facet normal -0.573576436351046 -1.747236235475656e-15 0.8191520442889917
    outer loop
      vertex 5.165145801439515 73.5 16.25609449360266
      vertex 6.803449890017497 71.5 17.403247366304747
      vertex 56.771724591646 71.5 52.39140998371856
    endloop
  endfacet
  facet normal 0 -1 0
    outer loop
      vertex 5.165145801439515 73.5 16.25609449360266
      vertex 55.26109404465674 73.5 58.035707579567216
      vertex 2.016211165872271 73.5 20.753239216749222
    endloop
  endfacet
  facet normal -0.573576436351046 -1.7490282726402467e-15 0.8191520442889918
    outer loop
      vertex 5.165145801439515 73.5 16.25609449360266
      vertex 56.771724591646 71.5 52.39140998371856
      vertex 58.41002868022398 73.5 53.538562856420654
    endloop
  endfacet
  facet normal 0 -1 0
    outer loop
      vertex 5.165145801439515 73.5 16.25609449360266
      vertex 58.41002868022398 73.5 53.538562856420654
      vertex 55.26109404465674 73.5 58.035707579567216
    endloop
  endfacet
  facet normal -0.573576436351047 0 0.8191520442889912
    outer loop
      vertex 56.771724591646 4.5 52.39140998371856
      vertex 58.41002868022398 2.5 53.538562856420654
      vertex 56.771724591646 71.5 52.39140998371856
    endloop
  endfacet
  facet normal -0.8191520442889916 0 -0.5735764363510465
    outer loop
      vertex 55.26109404465674 2.5 58.035707579567216
      vertex 58.41002868022398 73.5 53.538562856420654
      vertex 58.41002868022398 2.5 53.538562856420654
    endloop
  endfacet
  facet normal -0.573576436351047 0 0.8191520442889911
    outer loop
      vertex 58.41002868022398 2.5 53.538562856420654
      vertex 58.41002868022398 73.5 53.538562856420654
      vertex 56.771724591646 71.5 52.39140998371856
    endloop
  endfacet
  facet normal -0.8191520442889916 0 -0.5735764363510465
    outer loop
      vertex 55.26109404465674 2.5 58.035707579567216
      vertex 55.26109404465674 73.5 58.035707579567216
      vertex 58.41002868022398 73.5 53.538562856420654
    endloop
  endfacet
  facet normal 0.8191520442889921 0 0.5735764363510458
    outer loop
      vertex 51.007283596211536 0 13.55082141956116
      vertex 55.595895087019905 4.5 6.997605065249221
      vertex 51.007283596211536 4.5 13.55082141956116
    endloop
  endfacet
  facet normal -0.5735764363510458 0 0.8191520442889919
    outer loop
      vertex 55.595895087019905 0 6.997605065249221
      vertex 56.824623153453395 4.5 7.857969719775792
      vertex 55.595895087019905 4.5 6.997605065249221
    endloop
  endfacet
  facet normal 0.8191520442889921 0 0.5735764363510458
    outer loop
      vertex 51.007283596211536 0 13.55082141956116
      vertex 55.595895087019905 0 6.997605065249221
      vertex 55.595895087019905 4.5 6.997605065249221
    endloop
  endfacet
  facet normal -0.573576436351046 3.588599675556061e-17 0.8191520442889918
    outer loop
      vertex 55.595895087019905 0 6.997605065249221
      vertex 74.84596812781122 4.5 20.476651319498806
      vertex 56.824623153453395 4.5 7.857969719775792
    endloop
  endfacet
  facet normal 0.5735764363510458 0 -0.819152044288992
    outer loop
      vertex 51.007283596211536 0 13.55082141956116
      vertex 51.007283596211536 4.5 13.55082141956116
      vertex 71.48608470343633 0 27.890232328337305
    endloop
  endfacet
  facet normal -0.5735764363510503 2.5263741715914795e-14 0.8191520442889889
    outer loop
      vertex 55.595895087019905 0 6.997605065249221
      vertex 76.0746961942447 4.5 21.337015974025377
      vertex 74.84596812781122 4.5 20.476651319498806
    endloop
  endfacet
  facet normal -0.5735764363510463 0 0.8191520442889916
    outer loop
      vertex 55.595895087019905 0 6.997605065249221
      vertex 76.0746961942447 0 21.337015974025377
      vertex 76.0746961942447 4.5 21.337015974025377
    endloop
  endfacet
  facet normal 0.5735764363510458 0 -0.819152044288992
    outer loop
      vertex 51.007283596211536 4.5 13.55082141956116
      vertex 71.48608470343633 4.5 27.890232328337305
      vertex 71.48608470343633 0 27.890232328337305
    endloop
  endfacet
  facet normal -0.819152044288992 0 -0.5735764363510458
    outer loop
      vertex 71.48608470343633 0 27.890232328337305
      vertex 71.48608470343633 4.5 27.890232328337305
      vertex 76.0746961942447 0 21.337015974025377
    endloop
  endfacet
  facet normal -0.819152044288992 0 -0.5735764363510458
    outer loop
      vertex 71.48608470343633 4.5 27.890232328337305
      vertex 76.0746961942447 4.5 21.337015974025377
      vertex 76.0746961942447 0 21.337015974025377
    endloop
  endfacet
  facet normal 0 -1 0
    outer loop
      vertex 63.17279648866995 4.5 14.134170426098486
      vertex 65.38450700825024 4.5 15.68282680424631
      vertex 61.45206717961681 4.5 16.59162655896546
    endloop
  endfacet
  facet normal 0 -1 0
    outer loop
      vertex 61.45206717961681 4.5 16.59162655896546
      vertex 65.38450700825024 4.5 15.68282680424631
      vertex 63.66377769919709 4.5 18.140282937113284
    endloop
  endfacet
  facet normal -0.8191520442889947 9.235837992257485e-15 -0.5735764363510422
    outer loop
      vertex 63.17279648866995 6.5 14.134170426098486
      vertex 61.45206717961681 4.5 16.59162655896546
      vertex 62.1415528186603 5.702081528017131 15.606939017888195
    endloop
  endfacet
  facet normal -0.8191520442889911 0 -0.573576436351047
    outer loop
      vertex 63.17279648866995 4.5 14.134170426098486
      vertex 61.45206717961681 4.5 16.59162655896546
      vertex 63.17279648866995 6.5 14.134170426098486
    endloop
  endfacet
  facet normal -0.8191520442889919 -1.71523756663125e-15 -0.573576436351046
    outer loop
      vertex 63.17279648866995 6.5 14.134170426098486
      vertex 62.1415528186603 5.702081528017131 15.606939017888195
      vertex 61.6838855850017 6.5 16.260555565388906
    endloop
  endfacet
  facet normal 0 1 0
    outer loop
      vertex 63.17279648866995 6.5 14.134170426098486
      vertex 61.6838855850017 6.5 16.260555565388906
      vertex 63.895596104581976 6.5 17.80921194353673
    endloop
  endfacet
  facet normal 0 1 0
    outer loop
      vertex 63.17279648866995 6.5 14.134170426098486
      vertex 63.895596104581976 6.5 17.80921194353673
      vertex 65.38450700825024 6.5 15.68282680424631
    endloop
  endfacet
  facet normal 0.8191520442889905 0 0.573576436351048
    outer loop
      vertex 65.38450700825024 4.5 15.68282680424631
      vertex 65.38450700825024 6.5 15.68282680424631
      vertex 64.35326333824058 5.702081528017131 17.15559539603602
    endloop
  endfacet
  facet normal 0.81915204428899 -9.851560525074653e-16 0.5735764363510486
    outer loop
      vertex 65.38450700825024 4.5 15.68282680424631
      vertex 64.35326333824058 5.702081528017131 17.15559539603602
      vertex 63.66377769919709 4.5 18.140282937113284
    endloop
  endfacet
  facet normal 0.8191520442889906 -4.2880939165781177e-16 0.5735764363510479
    outer loop
      vertex 65.38450700825024 6.5 15.68282680424631
      vertex 63.895596104581976 6.5 17.80921194353673
      vertex 64.35326333824058 5.702081528017131 17.15559539603602
    endloop
  endfacet
  facet normal -0.8191520442889901 1.2443032954236468e-15 -0.5735764363510486
    outer loop
      vertex 61.45206717961681 4.5 16.59162655896546
      vertex 61.6838855850017 6.5 16.260555565388906
      vertex 62.1415528186603 5.702081528017131 15.606939017888195
    endloop
  endfacet
  facet normal -0.8191520442889915 1.7233974206042874e-15 -0.5735764363510465
    outer loop
      vertex 61.45206717961681 4.5 16.59162655896546
      vertex 61.33039324331502 7.116295090390226 16.765394948567334
      vertex 61.6838855850017 6.5 16.260555565388906
    endloop
  endfacet
  facet normal -0.8191520442889905 1.8612562471657033e-15 -0.5735764363510479
    outer loop
      vertex 61.45206717961681 4.5 16.59162655896546
      vertex 60.64090760427153 5.914213562373095 17.750082489644598
      vertex 61.33039324331502 7.116295090390226 16.765394948567334
    endloop
  endfacet
  facet normal -0.40557978767263864 -0.7071067811865479 0.5792279653395689
    outer loop
      vertex 61.45206717961681 4.5 16.59162655896546
      vertex 63.66377769919709 4.5 18.140282937113284
      vertex 60.64090760427153 5.914213562373095 17.750082489644598
    endloop
  endfacet
  facet normal 0.4055797876726368 0.7071067811865511 -0.5792279653395663
    outer loop
      vertex 61.6838855850017 6.5 16.260555565388906
      vertex 61.33039324331502 7.116295090390226 16.765394948567334
      vertex 63.895596104581976 6.5 17.80921194353673
    endloop
  endfacet
  facet normal -0.405579787672639 0.7071067811865471 0.5792279653395694
    outer loop
      vertex 60.64090760427153 5.914213562373095 17.750082489644598
      vertex 62.85261812385181 5.914213562373095 19.298738867792423
      vertex 61.33039324331502 7.116295090390226 16.765394948567334
    endloop
  endfacet
  facet normal -0.40557978767263864 -0.7071067811865478 0.5792279653395689
    outer loop
      vertex 60.64090760427153 5.914213562373095 17.750082489644598
      vertex 63.66377769919709 4.5 18.140282937113284
      vertex 62.85261812385181 5.914213562373095 19.298738867792423
    endloop
  endfacet
  facet normal 0.4055797876726368 0.7071067811865511 -0.5792279653395663
    outer loop
      vertex 61.33039324331502 7.116295090390226 16.765394948567334
      vertex 63.5421037628953 7.116295090390226 18.31405132671516
      vertex 63.895596104581976 6.5 17.80921194353673
    endloop
  endfacet
  facet normal -0.405579787672639 0.7071067811865471 0.5792279653395694
    outer loop
      vertex 61.33039324331502 7.116295090390226 16.765394948567334
      vertex 62.85261812385181 5.914213562373095 19.298738867792423
      vertex 63.5421037628953 7.116295090390226 18.31405132671516
    endloop
  endfacet
  facet normal 0.8191520442889905 -1.865337949462119e-15 0.5735764363510479
    outer loop
      vertex 63.5421037628953 7.116295090390226 18.31405132671516
      vertex 62.85261812385181 5.914213562373095 19.298738867792423
      vertex 63.66377769919709 4.5 18.140282937113284
    endloop
  endfacet
  facet normal 0.8191520442889901 -1.2443032954236468e-15 0.5735764363510486
    outer loop
      vertex 63.66377769919709 4.5 18.140282937113284
      vertex 64.35326333824058 5.702081528017131 17.15559539603602
      vertex 63.895596104581976 6.5 17.80921194353673
    endloop
  endfacet
  facet normal 0.8191520442889915 -1.7233974206042874e-15 0.5735764363510465
    outer loop
      vertex 63.5421037628953 7.116295090390226 18.31405132671516
      vertex 63.66377769919709 4.5 18.140282937113284
      vertex 63.895596104581976 6.5 17.80921194353673
    endloop
  endfacet
  facet normal 0 -1 0
    outer loop
      vertex 56.824623153453395 4.5 7.857969719775792
      vertex 63.17279648866995 4.5 14.134170426098486
      vertex 55.964258498926824 4.5 9.086697786209282
    endloop
  endfacet
  facet normal 0 -1 0
    outer loop
      vertex 56.824623153453395 4.5 7.857969719775792
      vertex 65.38450700825024 4.5 15.68282680424631
      vertex 63.17279648866995 4.5 14.134170426098486
    endloop
  endfacet
  facet normal -0.5735764363510459 0 0.8191520442889919
    outer loop
      vertex 55.964258498926824 4.5 9.086697786209282
      vertex 63.17279648866995 4.5 14.134170426098486
      vertex 63.17279648866995 6.5 14.134170426098486
    endloop
  endfacet
  facet normal -0.8191520442889911 3.500703230800044e-17 -0.573576436351047
    outer loop
      vertex 57.684987807979965 4.5 6.629241653342305
      vertex 56.824623153453395 4.5 7.857969719775792
      vertex 55.964258498926824 63.7 9.086697786209282
    endloop
  endfacet
  facet normal -0.8191520442889919 0 -0.5735764363510458
    outer loop
      vertex 56.824623153453395 4.5 7.857969719775792
      vertex 55.964258498926824 4.5 9.086697786209282
      vertex 55.964258498926824 63.7 9.086697786209282
    endloop
  endfacet
  facet normal 0 -1 0
    outer loop
      vertex 56.824623153453395 4.5 7.857969719775792
      vertex 73.98560347328464 4.5 21.70537938593229
      vertex 65.38450700825024 4.5 15.68282680424631
    endloop
  endfacet
  facet normal 0 -1 0
    outer loop
      vertex 56.824623153453395 4.5 7.857969719775792
      vertex 74.84596812781122 4.5 20.476651319498806
      vertex 73.98560347328464 4.5 21.70537938593229
    endloop
  endfacet
  facet normal -0.5735764363510463 0 0.8191520442889917
    outer loop
      vertex 65.38450700825024 4.5 15.68282680424631
      vertex 73.98560347328464 4.5 21.70537938593229
      vertex 65.38450700825024 6.5 15.68282680424631
    endloop
  endfacet
  facet normal -0.5735764363510458 -2.979464675277173e-17 0.8191520442889919
    outer loop
      vertex 55.964258498926824 4.5 9.086697786209282
      vertex 63.17279648866995 6.5 14.134170426098486
      vertex 73.98560347328464 63.7 21.70537938593229
    endloop
  endfacet
  facet normal -0.5735764363510448 -3.220538170370815e-16 0.8191520442889927
    outer loop
      vertex 63.17279648866995 6.5 14.134170426098486
      vertex 65.38450700825024 6.5 15.68282680424631
      vertex 73.98560347328464 63.7 21.70537938593229
    endloop
  endfacet
  facet normal -0.5735764363510463 0 0.8191520442889917
    outer loop
      vertex 65.38450700825024 6.5 15.68282680424631
      vertex 73.98560347328464 4.5 21.70537938593229
      vertex 73.98560347328464 63.7 21.70537938593229
    endloop
  endfacet
  facet normal 0.8191520442889897 0 0.573576436351049
    outer loop
      vertex 75.7063327823378 4.5 19.247923253065316
      vertex 75.7063327823378 63.7 19.247923253065316
      vertex 74.84596812781122 4.5 20.476651319498806
    endloop
  endfacet
  facet normal 0.8191520442889881 6.50130600005722e-17 0.5735764363510514
    outer loop
      vertex 73.98560347328464 4.5 21.70537938593229
      vertex 74.84596812781122 4.5 20.476651319498806
      vertex 75.7063327823378 63.7 19.247923253065316
    endloop
  endfacet
  facet normal -0.8191520442889916 0 -0.5735764363510464
    outer loop
      vertex 57.684987807979965 4.5 6.629241653342305
      vertex 55.964258498926824 63.7 9.086697786209282
      vertex 57.684987807979965 63.7 6.629241653342305
    endloop
  endfacet
  facet normal -0.5735764363510456 0 0.8191520442889922
    outer loop
      vertex 55.964258498926824 4.5 9.086697786209282
      vertex 59.240866676082796 63.7 11.381003531613466
      vertex 55.964258498926824 63.7 9.086697786209282
    endloop
  endfacet
  facet normal -0.573576436351046 3.334003076952424e-17 0.8191520442889918
    outer loop
      vertex 55.964258498926824 4.5 9.086697786209282
      vertex 73.98560347328464 63.7 21.70537938593229
      vertex 59.240866676082796 63.7 11.381003531613466
    endloop
  endfacet
  facet normal 0.8191520442889889 0 0.5735764363510503
    outer loop
      vertex 73.98560347328464 4.5 21.70537938593229
      vertex 75.7063327823378 63.7 19.247923253065316
      vertex 73.98560347328464 63.7 21.70537938593229
    endloop
  endfacet
  facet normal -0.8191520442889902 0 -0.5735764363510482
    outer loop
      vertex 55.046536200765146 63.7 10.397341057071667
      vertex 55.046536200765146 67.7 10.397341057071667
      vertex 55.964258498926824 63.7 9.086697786209282
    endloop
  endfacet
  facet normal -0.5735764363510459 0 0.8191520442889919
    outer loop
      vertex 55.046536200765146 63.7 10.397341057071667
      vertex 55.66090023398189 67.7 10.827523384334953
      vertex 55.046536200765146 67.7 10.397341057071667
    endloop
  endfacet
  facet normal 0 -1 0
    outer loop
      vertex 55.046536200765146 63.7 10.397341057071667
      vertex 55.964258498926824 63.7 9.086697786209282
      vertex 58.323144377921125 63.7 12.691646802475852
    endloop
  endfacet
  facet normal 0 -1 0
    outer loop
      vertex 55.964258498926824 63.7 9.086697786209282
      vertex 59.240866676082796 63.7 11.381003531613466
      vertex 58.323144377921125 63.7 12.691646802475852
    endloop
  endfacet
  facet normal -0.8191520442889916 -8.881784197001245e-16 -0.5735764363510465
    outer loop
      vertex 57.684987807979965 63.7 6.629241653342305
      vertex 55.964258498926824 63.7 9.086697786209282
      vertex 55.046536200765146 67.7 10.397341057071667
    endloop
  endfacet
  facet normal -0.819152044288991 0 -0.573576436351047
    outer loop
      vertex 57.684987807979965 63.7 6.629241653342305
      vertex 55.046536200765146 67.7 10.397341057071667
      vertex 57.684987807979965 67.7 6.629241653342305
    endloop
  endfacet
  facet normal -0.5735764363510445 -3.24526730275045e-16 0.8191520442889929
    outer loop
      vertex 55.046536200765146 63.7 10.397341057071667
      vertex 58.323144377921125 67.7 12.691646802475852
      vertex 55.66090023398189 67.7 10.827523384334953
    endloop
  endfacet
  facet normal -0.5735764363510448 0 0.8191520442889928
    outer loop
      vertex 55.046536200765146 63.7 10.397341057071667
      vertex 58.323144377921125 63.7 12.691646802475852
      vertex 58.323144377921125 67.7 12.691646802475852
    endloop
  endfacet
  facet normal 0 1 0
    outer loop
      vertex 55.66090023398189 67.7 10.827523384334953
      vertex 58.380502021556225 67.7 12.609731598046949
      vertex 55.718257877617 67.7 10.745608179906053
    endloop
  endfacet
  facet normal 0 1 0
    outer loop
      vertex 55.66090023398189 67.7 10.827523384334953
      vertex 58.323144377921125 67.7 12.691646802475852
      vertex 58.380502021556225 67.7 12.609731598046949
    endloop
  endfacet
  facet normal -0.5735764363510462 0 0.8191520442889918
    outer loop
      vertex 58.323144377921125 63.7 12.691646802475852
      vertex 72.04394111976174 67.7 22.299052111355877
      vertex 58.323144377921125 67.7 12.691646802475852
    endloop
  endfacet
  facet normal 0 1 0
    outer loop
      vertex 58.323144377921125 67.7 12.691646802475852
      vertex 72.04394111976174 67.7 22.299052111355877
      vertex 58.380502021556225 67.7 12.609731598046949
    endloop
  endfacet
  facet normal 0 -1 0
    outer loop
      vertex 58.323144377921125 63.7 12.691646802475852
      vertex 59.240866676082796 63.7 11.381003531613466
      vertex 73.98560347328464 63.7 21.70537938593229
    endloop
  endfacet
  facet normal 0 -1 0
    outer loop
      vertex 58.323144377921125 63.7 12.691646802475852
      vertex 73.98560347328464 63.7 21.70537938593229
      vertex 73.06788117512298 63.7 23.016022656794675
    endloop
  endfacet
  facet normal -0.5735764363510458 0 0.819152044288992
    outer loop
      vertex 58.323144377921125 63.7 12.691646802475852
      vertex 73.06788117512298 63.7 23.016022656794675
      vertex 73.06788117512298 67.7 23.016022656794675
    endloop
  endfacet
  facet normal -0.5735764363510419 -2.2737367544323346e-14 0.8191520442889947
    outer loop
      vertex 58.323144377921125 63.7 12.691646802475852
      vertex 73.06788117512298 67.7 23.016022656794675
      vertex 72.04394111976174 67.7 22.299052111355877
    endloop
  endfacet
  facet normal 0.8191520442889945 0 0.5735764363510423
    outer loop
      vertex 73.98560347328464 63.7 21.70537938593229
      vertex 73.06788117512298 67.7 23.016022656794675
      vertex 73.06788117512298 63.7 23.016022656794675
    endloop
  endfacet
  facet normal 0 1 0
    outer loop
      vertex 58.380502021556225 67.7 12.609731598046949
      vertex 72.04394111976174 67.7 22.299052111355877
      vertex 72.10129876339684 67.7 22.217136906926974
    endloop
  endfacet
  facet normal 0.8191520442889889 0 0.5735764363510503
    outer loop
      vertex 73.98560347328464 63.7 21.70537938593229
      vertex 75.7063327823378 63.7 19.247923253065316
      vertex 75.7063327823378 67.7 19.247923253065316
    endloop
  endfacet
  facet normal 0.8191520442889909 -2.5342047301226394e-15 0.5735764363510475
    outer loop
      vertex 73.98560347328464 63.7 21.70537938593229
      vertex 75.7063327823378 67.7 19.247923253065316
      vertex 73.06788117512298 67.7 23.016022656794675
    endloop
  endfacet
  facet normal 0 -1 0
    outer loop
      vertex 0 0 19
      vertex 0 0 4.5
      vertex 15.5 0 4.5
    endloop
  endfacet
  facet normal 0 -1 0
    outer loop
      vertex 2.7346597654879905 0 17.26534023451201
      vertex 0 0 19
      vertex 15.5 0 4.5
    endloop
  endfacet
  facet normal 0 -1 0
    outer loop
      vertex 2.7346597654879905 0 17.26534023451201
      vertex 0.19190600982131917 0 19
      vertex 0 0 19
    endloop
  endfacet
  facet normal -1 0 0
    outer loop
      vertex 0 76 19
      vertex 0 0 0
      vertex 0 0 4.5
    endloop
  endfacet
  facet normal -1 0 0
    outer loop
      vertex 0 0 19
      vertex 0 76 19
      vertex 0 0 4.5
    endloop
  endfacet
  facet normal 0 0 1
    outer loop
      vertex 0 0 19
      vertex 0.19190600982131917 0 19
      vertex 0 76 19
    endloop
  endfacet
  facet normal -1 0 0
    outer loop
      vertex 0 76 4.5
      vertex 0 76 0
      vertex 0 0 0
    endloop
  endfacet
  facet normal -1 0 0
    outer loop
      vertex 0 76 19
      vertex 0 76 4.5
      vertex 0 0 0
    endloop
  endfacet
  facet normal 0 0 1
    outer loop
      vertex 0.19190600982131917 0 19
      vertex 0.19190600982131917 76 19
      vertex 0 76 19
    endloop
  endfacet
  facet normal 0 1 0
    outer loop
      vertex 8.383644137247256 76 11.616355862752744
      vertex 15.5 76 4.5
      vertex 0 76 4.5
    endloop
  endfacet
  facet normal 0 1 0
    outer loop
      vertex 6.447425301145444 76 13.249939959902033
      vertex 8.383644137247256 76 11.616355862752744
      vertex 0 76 4.5
    endloop
  endfacet
  facet normal 0 1 0
    outer loop
      vertex 6.447425301145444 76 13.249939959902033
      vertex 0 76 4.5
      vertex 0.9435055091164861 76 17.926604673213237
    endloop
  endfacet
  facet normal 0 1 0
    outer loop
      vertex 0.9435055091164861 76 17.926604673213237
      vertex 0 76 4.5
      vertex 0 76 19
    endloop
  endfacet
  facet normal 0 1 0
    outer loop
      vertex 0.9435055091164861 76 17.926604673213237
      vertex 0 76 19
      vertex 0.19190600982131917 76 19
    endloop
  endfacet
  facet normal 0 0 -1
    outer loop
      vertex 84.85 0 0
      vertex 83.85 0 0
      vertex 83.85 2.54606365159129 0
    endloop
  endfacet
  facet normal 0 -1 0
    outer loop
      vertex 84.85 0 0
      vertex 83.85 0 4.5
      vertex 83.85 0 0
    endloop
  endfacet
  facet normal 0 -1 0
    outer loop
      vertex 83.85 0 20.2
      vertex 60.259114583333336 0 4.5
      vertex 83.85 0 4.5
    endloop
  endfacet
  facet normal 0 -1 0
    outer loop
      vertex 84.85 0 0
      vertex 84.85 0 20.2
      vertex 83.85 0 4.5
    endloop
  endfacet
  facet normal 0 -1 0
    outer loop
      vertex 83.85 0 20.2
      vertex 83.85 0 4.5
      vertex 84.8058781772716 0 20.2
    endloop
  endfacet
  facet normal 0 -1 0
    outer loop
      vertex 84.85 0 20.2
      vertex 84.8058781772716 0 20.2
      vertex 83.85 0 4.5
    endloop
  endfacet
  facet normal 0 0 -1
    outer loop
      vertex 84.85 0 0
      vertex 83.85 2.54606365159129 0
      vertex 84.85 76 0
    endloop
  endfacet
  facet normal 1 0 0
    outer loop
      vertex 84.85 0 0
      vertex 84.85 76 20.2
      vertex 84.85 0 20.2
    endloop
  endfacet
  facet normal 0 0 1
    outer loop
      vertex 84.85 0 20.2
      vertex 84.8058781772716 76 20.2
      vertex 84.8058781772716 0 20.2
    endloop
  endfacet
  facet normal 0 0 -1
    outer loop
      vertex 83.85 2.54606365159129 0
      vertex 62.574076517150395 56.71591908531223 0
      vertex 83.85 76 0
    endloop
  endfacet
  facet normal 0 0 -1
    outer loop
      vertex 84.85 76 0
      vertex 83.85 2.54606365159129 0
      vertex 83.85 76 0
    endloop
  endfacet
  facet normal 1 0 0
    outer loop
      vertex 84.85 0 0
      vertex 84.85 76 0
      vertex 84.85 76 20.2
    endloop
  endfacet
  facet normal 0 0 1
    outer loop
      vertex 84.85 0 20.2
      vertex 84.85 76 20.2
      vertex 84.8058781772716 76 20.2
    endloop
  endfacet
  facet normal 0 1 0
    outer loop
      vertex 78.1388036107336 76 16.39913446537557
      vertex 79.33994892893662 76 17.042182612288382
      vertex 60.25911458333333 76 4.5
    endloop
  endfacet
  facet normal 0 1 0
    outer loop
      vertex 84.85 76 0
      vertex 83.85 76 0
      vertex 83.85 76 4.5
    endloop
  endfacet
  facet normal 0 1 0
    outer loop
      vertex 84.85 76 20.2
      vertex 83.85 76 4.5
      vertex 60.25911458333333 76 4.5
    endloop
  endfacet
  facet normal 0 1 0
    outer loop
      vertex 79.33994892893662 76 17.042182612288382
      vertex 84.85 76 20.2
      vertex 60.25911458333333 76 4.5
    endloop
  endfacet
  facet normal 0 1 0
    outer loop
      vertex 84.85 76 0
      vertex 83.85 76 4.5
      vertex 84.85 76 20.2
    endloop
  endfacet
  facet normal 0 1 0
    outer loop
      vertex 79.33994892893662 76 17.042182612288382
      vertex 83.85 76 20.2
      vertex 84.8058781772716 76 20.2
    endloop
  endfacet
  facet normal 0 1 0
    outer loop
      vertex 79.33994892893662 76 17.042182612288382
      vertex 84.8058781772716 76 20.2
      vertex 84.85 76 20.2
    endloop
  endfacet
  facet normal 0 -1 0
    outer loop
      vertex 0 0 0
      vertex 15.5 0 4.5
      vertex 0 0 4.5
    endloop
  endfacet
  facet normal 0 -1 0
    outer loop
      vertex 0 0 0
      vertex 60.259114583333336 0 4.5
      vertex 15.5 0 4.5
    endloop
  endfacet
  facet normal 0 0 1
    outer loop
      vertex 15.838400963288665 4.5 4.5
      vertex 54.64411558488687 4.5 4.5
      vertex 15.838400963288665 71.5 4.5
    endloop
  endfacet
  facet normal 0 0 -1
    outer loop
      vertex 0 0 0
      vertex 0 76 0
      vertex 62.574076517150395 56.71591908531223 0
    endloop
  endfacet
  facet normal 0 0 1
    outer loop
      vertex 54.64411558488687 4.5 4.5
      vertex 54.64411558488687 71.5 4.5
      vertex 15.838400963288665 71.5 4.5
    endloop
  endfacet
  facet normal 0 1 0
    outer loop
      vertex 0 76 0
      vertex 0 76 4.5
      vertex 83.85 76 0
    endloop
  endfacet
  facet normal 0 1 0
    outer loop
      vertex 15.5 76 4.5
      vertex 83.85 76 0
      vertex 0 76 4.5
    endloop
  endfacet
  facet normal 0 -1 0
    outer loop
      vertex 0 0 0
      vertex 83.85 0 4.5
      vertex 60.259114583333336 0 4.5
    endloop
  endfacet
  facet normal 0 0 -1
    outer loop
      vertex 0 0 0
      vertex 62.574076517150395 56.71591908531223 0
      vertex 83.85 0 0
    endloop
  endfacet
  facet normal 0 -1 0
    outer loop
      vertex 0 0 0
      vertex 83.85 0 0
      vertex 83.85 0 4.5
    endloop
  endfacet
  facet normal 0 0 -1
    outer loop
      vertex 83.85 2.54606365159129 0
      vertex 83.85 0 0
      vertex 62.574076517150395 56.71591908531223 0
    endloop
  endfacet
  facet normal 0 0 -1
    outer loop
      vertex 0 76 0
      vertex 83.85 76 0
      vertex 62.574076517150395 56.71591908531223 0
    endloop
  endfacet
  facet normal 0 1 0
    outer loop
      vertex 60.25911458333333 76 4.5
      vertex 83.85 76 0
      vertex 15.5 76 4.5
    endloop
  endfacet
  facet normal 0 1 0
    outer loop
      vertex 60.25911458333333 76 4.5
      vertex 83.85 76 4.5
      vertex 83.85 76 0
    endloop
  endfacet
endsolid OpenSCAD_Model
